HIERARCHY
ROOT pelvis
{
  OFFSET 0 100 0
  CHANNELS 6 Xposition Yposition Zposition Zrotation Xrotation Yrotation
  JOINT pelvis_right_femur
  {
    OFFSET -10.78128 -3.44521 -0.5502486
    CHANNELS 3 Zrotation Xrotation Yrotation
    JOINT right_femur_tibia
    {
      OFFSET -0.8047443 -44.0398 -0.1307829
      CHANNELS 3 Zrotation Xrotation Yrotation
      JOINT right_tibia_foot
      {
        OFFSET 3.006224 -47.83518 -5
        CHANNELS 3 Zrotation Xrotation Yrotation
        End Site
        {
          OFFSET 0 -5 15
        }
      }
    }
  }
  JOINT pelvis_left_femur
  {
    OFFSET 10.78128 -3.44521 -0.5502486
    CHANNELS 3 Zrotation Xrotation Yrotation
    JOINT left_femur_tibia
    {
      OFFSET 0.8047443 -44.0398 -0.1307829
      CHANNELS 3 Zrotation Xrotation Yrotation
      JOINT left_tibia_foot
      {
        OFFSET -4.370144 -48.10324 -4.275266
        CHANNELS 3 Zrotation Xrotation Yrotation
        End Site
        {
          OFFSET 0 -5 15
        }
      }
    }
  }
  JOINT pelvis_spine1
  {
    OFFSET 0 6.468898 -3.129235
    CHANNELS 3 Zrotation Xrotation Yrotation
    JOINT spine1
    {
      OFFSET 0 23.15396 4.99043
      CHANNELS 3 Zrotation Xrotation Yrotation
      JOINT spine2
      {
        OFFSET 0 20.79997 -5.064912
        CHANNELS 3 Zrotation Xrotation Yrotation
        JOINT neck
        {
          OFFSET 0 14.38658 9.616178
          CHANNELS 3 Zrotation Xrotation Yrotation
          End Site
          {
            OFFSET 0 20 0
          }
        }
      }
      JOINT right_manubrium
      {
        OFFSET -5.722621 16.35077 3.967754
        CHANNELS 3 Zrotation Xrotation Yrotation
        JOINT right_clavicle
        {
          OFFSET -13.16364 1.694482 -4.693211
          CHANNELS 3 Zrotation Xrotation Yrotation
          JOINT right_humerus
          {
            OFFSET -28.5034 -0.3100689 -2.792744
            CHANNELS 3 Zrotation Xrotation Yrotation
            JOINT right_radius
            {
              OFFSET -25.15693 0.02248979 -1.271978
              CHANNELS 3 Zrotation Xrotation Yrotation
              End Site
              {
                OFFSET -15 0 0
              }
            }
          }
        }
      }
      JOINT left_manubrium
      {
        OFFSET 5.722621 16.35077 3.967754
        CHANNELS 3 Zrotation Xrotation Yrotation
        JOINT left_clavicle
        {
          OFFSET 13.16364 1.694482 -4.693211
          CHANNELS 3 Zrotation Xrotation Yrotation
          JOINT left_humerus
          {
            OFFSET 29.39168 -1.063119 -2.237045
            CHANNELS 3 Zrotation Xrotation Yrotation
            JOINT left_radius
            {
              OFFSET 24.59957 -0.9528479 0.9047498
              CHANNELS 3 Zrotation Xrotation Yrotation
              End Site
              {
                OFFSET 15 -0 -0
              }
            }
          }
        }
      }
    }
  }
}
MOTION
Frames: 13
Frame Time: 0.0416666666667
-1102.319 89.96185 -1.748021 4.537988 6.333573 128.8943 1.125838 3.061422 -3.470146 -0 23.2992 -0 -15.75556 1.501154 4.975804 -1.935577 -12.97939 -7.686966 -0 28.52115 -0 2.664162 -2.928055 16.49749 -1.614502 -0.371531 7.793145 -1.093654 14.01659 -4.377435 -0.7735818 20.79729 8.101177 10.06159 -14.66011 1.802385 6.270834 -21.95285 13.38086 81.11921 33.56393 -10.33143 -0 0 22.8626 -23.55928 9.673335 6.380474 7.7603 -24.95533 -9.201682 -93.3229 0.1787622 26.04608 -0 0 0.9300219 22.11249 9.591885 -17.52677
-1098.868 89.989 -6.12559 4.594225 6.292978 128.3829 1.125838 3.061422 -3.470146 -0 23.2992 -0 -15.75556 1.501154 4.975804 -1.935577 -12.97939 -7.686966 -0 28.52115 -0 2.664162 -2.928055 16.49749 -1.614502 -0.371531 7.793145 -1.093654 14.01659 -4.377435 -0.7735818 20.79729 8.101177 10.06159 -14.66011 1.802385 6.270834 -21.95285 13.38086 81.11921 33.56393 -10.33143 -0 0 22.8626 -23.55928 9.673335 6.380474 7.7603 -24.95533 -9.201682 -93.3229 0.1787622 26.04608 -0 0 0.9300219 22.11249 9.591885 -17.52677
-1095.379 90.01615 -10.47228 4.650091 6.251886 127.8715 1.125838 3.061422 -3.470146 -0 23.2992 -0 -15.75556 1.501154 4.975804 -1.935577 -12.97939 -7.686966 -0 28.52115 -0 2.664162 -2.928055 16.49749 -1.614502 -0.371531 7.793145 -1.093654 14.01659 -4.377435 -0.7735818 20.79729 8.101177 10.06159 -14.66011 1.802385 6.270834 -21.95285 13.38086 81.11921 33.56393 -10.33143 -0 0 22.8626 -23.55928 9.673335 6.380474 7.7603 -24.95533 -9.201682 -93.3229 0.1787622 26.04608 -0 0 0.9300219 22.11249 9.591885 -17.52677
-1091.851 90.04331 -14.78774 4.705581 6.2103 127.3603 1.125838 3.061422 -3.470146 -0 23.2992 -0 -15.75556 1.501154 4.975804 -1.935577 -12.97939 -7.686966 -0 28.52115 -0 2.664162 -2.928055 16.49749 -1.614502 -0.371531 7.793145 -1.093654 14.01659 -4.377435 -0.7735818 20.79729 8.101177 10.06159 -14.66011 1.802385 6.270834 -21.95285 13.38086 81.11921 33.56393 -10.33143 -0 0 22.8626 -23.55928 9.673335 6.380474 7.7603 -24.95533 -9.201682 -93.3229 0.1787622 26.04608 -0 0 0.9300219 22.11249 9.591885 -17.52677
-1088.285 90.07046 -19.07164 4.760691 6.168223 126.8491 1.125838 3.061422 -3.470146 -0 23.2992 -0 -15.75556 1.501154 4.975804 -1.935577 -12.97939 -7.686966 -0 28.52115 -0 2.664162 -2.928055 16.49749 -1.614502 -0.371531 7.793145 -1.093654 14.01659 -4.377435 -0.7735818 20.79729 8.101177 10.06159 -14.66011 1.802385 6.270834 -21.95285 13.38086 81.11921 33.56393 -10.33143 -0 0 22.8626 -23.55928 9.673335 6.380474 7.7603 -24.95533 -9.201682 -93.3229 0.1787622 26.04608 -0 0 0.9300219 22.11249 9.591885 -17.52677
-1084.681 90.09761 -23.32363 4.815418 6.12566 126.338 1.125838 3.061422 -3.470146 -0 23.2992 -0 -15.75556 1.501154 4.975804 -1.935577 -12.97939 -7.686966 -0 28.52115 -0 2.664162 -2.928055 16.49749 -1.614502 -0.371531 7.793145 -1.093654 14.01659 -4.377435 -0.7735818 20.79729 8.101177 10.06159 -14.66011 1.802385 6.270834 -21.95285 13.38086 81.11921 33.56393 -10.33143 -0 0 22.8626 -23.55928 9.673335 6.380474 7.7603 -24.95533 -9.201682 -93.3229 0.1787622 26.04608 -0 0 0.9300219 22.11249 9.591885 -17.52677
-1081.04 90.12477 -27.54337 4.869755 6.082613 125.827 1.125838 3.061422 -3.470146 -0 23.2992 -0 -15.75556 1.501154 4.975804 -1.935577 -12.97939 -7.686966 -0 28.52115 -0 2.664162 -2.928055 16.49749 -1.614502 -0.371531 7.793145 -1.093654 14.01659 -4.377435 -0.7735818 20.79729 8.101177 10.06159 -14.66011 1.802385 6.270834 -21.95285 13.38086 81.11921 33.56393 -10.33143 -0 0 22.8626 -23.55928 9.673335 6.380474 7.7603 -24.95533 -9.201682 -93.3229 0.1787622 26.04608 -0 0 0.9300219 22.11249 9.591885 -17.52677
-1077.361 90.15192 -31.73054 4.923701 6.039086 125.3161 1.125838 3.061422 -3.470146 -0 23.2992 -0 -15.75556 1.501154 4.975804 -1.935577 -12.97939 -7.686966 -0 28.52115 -0 2.664162 -2.928055 16.49749 -1.614502 -0.371531 7.793145 -1.093654 14.01659 -4.377435 -0.7735818 20.79729 8.101177 10.06159 -14.66011 1.802385 6.270834 -21.95285 13.38086 81.11921 33.56393 -10.33143 -0 0 22.8626 -23.55928 9.673335 6.380474 7.7603 -24.95533 -9.201682 -93.3229 0.1787622 26.04608 -0 0 0.9300219 22.11249 9.591885 -17.52677
-1073.644 90.17907 -35.8848 4.977249 5.995082 124.8053 1.125838 3.061422 -3.470146 -0 23.2992 -0 -15.75556 1.501154 4.975804 -1.935577 -12.97939 -7.686966 -0 28.52115 -0 2.664162 -2.928055 16.49749 -1.614502 -0.371531 7.793145 -1.093654 14.01659 -4.377435 -0.7735818 20.79729 8.101177 10.06159 -14.66011 1.802385 6.270834 -21.95285 13.38086 81.11921 33.56393 -10.33143 -0 0 22.8626 -23.55928 9.673335 6.380474 7.7603 -24.95533 -9.201682 -93.3229 0.1787622 26.04608 -0 0 0.9300219 22.11249 9.591885 -17.52677
-1069.891 90.20623 -40.00583 5.030397 5.950605 124.2945 1.125838 3.061422 -3.470146 -0 23.2992 -0 -15.75556 1.501154 4.975804 -1.935577 -12.97939 -7.686966 -0 28.52115 -0 2.664162 -2.928055 16.49749 -1.614502 -0.371531 7.793145 -1.093654 14.01659 -4.377435 -0.7735818 20.79729 8.101177 10.06159 -14.66011 1.802385 6.270834 -21.95285 13.38086 81.11921 33.56393 -10.33143 -0 0 22.8626 -23.55928 9.673335 6.380474 7.7603 -24.95533 -9.201682 -93.3229 0.1787622 26.04608 -0 0 0.9300219 22.11249 9.591885 -17.52677
-1066.102 90.23338 -44.09328 5.08314 5.905659 123.7839 1.125838 3.061422 -3.470146 -0 23.2992 -0 -15.75556 1.501154 4.975804 -1.935577 -12.97939 -7.686966 -0 28.52115 -0 2.664162 -2.928055 16.49749 -1.614502 -0.371531 7.793145 -1.093654 14.01659 -4.377435 -0.7735818 20.79729 8.101177 10.06159 -14.66011 1.802385 6.270834 -21.95285 13.38086 81.11921 33.56393 -10.33143 -0 0 22.8626 -23.55928 9.673335 6.380474 7.7603 -24.95533 -9.201682 -93.3229 0.1787622 26.04608 -0 0 0.9300219 22.11249 9.591885 -17.52677
-1062.276 90.26053 -48.14686 5.135473 5.860247 123.2733 1.125838 3.061422 -3.470146 -0 23.2992 -0 -15.75556 1.501154 4.975804 -1.935577 -12.97939 -7.686966 -0 28.52115 -0 2.664162 -2.928055 16.49749 -1.614502 -0.371531 7.793145 -1.093654 14.01659 -4.377435 -0.7735818 20.79729 8.101177 10.06159 -14.66011 1.802385 6.270834 -21.95285 13.38086 81.11921 33.56393 -10.33143 -0 0 22.8626 -23.55928 9.673335 6.380474 7.7603 -24.95533 -9.201682 -93.3229 0.1787622 26.04608 -0 0 0.9300219 22.11249 9.591885 -17.52677
-1058.414 90.28769 -52.16622 5.187394 5.814373 122.7628 1.125838 3.061422 -3.470146 -0 23.2992 -0 -15.75556 1.501154 4.975804 -1.935577 -12.97939 -7.686966 -0 28.52115 -0 2.664162 -2.928055 16.49749 -1.614502 -0.371531 7.793145 -1.093654 14.01659 -4.377435 -0.7735818 20.79729 8.101177 10.06159 -14.66011 1.802385 6.270834 -21.95285 13.38086 81.11921 33.56393 -10.33143 -0 0 22.8626 -23.55928 9.673335 6.380474 7.7603 -24.95533 -9.201682 -93.3229 0.1787622 26.04608 -0 0 0.9300219 22.11249 9.591885 -17.52677
